<?xml version="1.0" encoding="utf-8"?>
<!-- Generator: Adobe Illustrator 18.0.0, SVG Export Plug-In . SVG Version: 6.00 Build 0)  -->
<!DOCTYPE svg PUBLIC "-//W3C//DTD SVG 1.1//EN" "http://www.w3.org/Graphics/SVG/1.1/DTD/svg11.dtd">
<svg version="1.1" xmlns="http://www.w3.org/2000/svg" xmlns:xlink="http://www.w3.org/1999/xlink" x="0px" y="0px"
	 viewBox="0 0 1600 900" enable-background="new 0 0 1600 900" xml:space="preserve">
<g id="Background">
	<rect x="0" y="0.2" fill="#EEEEEE" width="1600" height="900"/>
</g>
<g id="Device">
	<g>
		<g>
			<defs>
				<rect id="SVGID_15_" x="0" y="0.2" width="1600" height="900"/>
			</defs>
			<clipPath id="SVGID_2_">
				<use xlink:href="#SVGID_15_"  overflow="visible"/>
			</clipPath>
			<g clip-path="url(#SVGID_2_)">
				<path fill="none" stroke="#B71C1C" stroke-width="15" stroke-linecap="round" stroke-miterlimit="10" d="M680.9,723.6H1096
					c12.7,0,23-10.3,23-23V528.7"/>
				<path fill="none" stroke="#FF8A80" stroke-width="15" stroke-linecap="round" stroke-miterlimit="10" d="M680.9,639.2H741
					c12.7,0,23-10.3,23-23v-87.5"/>
				<path fill="none" stroke="#F44336" stroke-width="15" stroke-linecap="round" stroke-miterlimit="10" d="M680.9,680.6h236.8
					c12.7,0,23-10.3,23-23V528.7"/>
				<g>
					<defs>
						<path id="SVGID_17_" d="M1375.1,264.9c-16-111.1-111.5-196.4-227-196.4c-42,0-81.4,11.4-115.3,31.1
							C1005,2.8,915.8-68.1,810-68.1c-128.1,0-232,103.9-232,232c0,4.4,0.2,8.8,0.4,13.2c-94.7,2.6-170.7,80.2-170.7,175.5
							c0,97,78.6,175.6,175.6,175.6h784.3c72.7,0,131.7-59,131.7-131.7C1499.3,326.2,1444.4,268.8,1375.1,264.9z"/>
					</defs>
					<use xlink:href="#SVGID_17_"  overflow="visible" fill="#F44336"/>
					<clipPath id="SVGID_4_">
						<use xlink:href="#SVGID_17_"  overflow="visible"/>
					</clipPath>
					<g clip-path="url(#SVGID_4_)">
						<path fill="#C62828" d="M1080.5,210c-36.5,0-46.9,15.1-46.9,36.4v395.7c0,21.3,16.4,36.5,36.6,36.5c0,0,65.9,1.3,81.6,1.3
							s75-1.3,75-1.3c20.2,0,36.6-15.3,36.6-36.5V292.2v-45.2c0-21.3-10.4-36.4-46.9-36.4L1080.5,210z"/>
						<path fill="#C62828" d="M1066.4,636.1H871.8c-9.2,0-16.6-7.4-16.6-16.6V182.4c0-9.2,7.4-16.6,16.6-16.6h194.6
							c9.2,0,16.6,7.4,16.6,16.6v437.1C1083,628.6,1075.6,636.1,1066.4,636.1z"/>
						<g>
							<g>
								<g>
									<path fill="#616161" d="M876.1,209.7c-12.5-5.4-57.7-8-102.3-8c-44.7,0-89.8,2.6-102.3,8c-9.3,4-11.5,8.2-11.5,23v391.4
										c0,14.8,2.2,19.5,11.5,23.6c12.5,5.4,57.7,8,102.3,8c44.7,0,89.8-2.6,102.3-8c9.3-4,10.9-8.8,10.9-23.6V232.7
										C887,217.9,885.4,213.7,876.1,209.7z M877.2,606.3H670.3V238.4h206.9V606.3z"/>
								</g>
							</g>
							<path fill="#424242" d="M773.8,214.1c-3.2,0-5.7,2.6-5.7,5.7c0,3.2,2.6,5.7,5.7,5.7c3.2,0,5.7-2.6,5.7-5.7
								C779.5,216.7,777,214.1,773.8,214.1L773.8,214.1z"/>
							<path fill="#424242" d="M697.3,216.4c-1.9,0-3.4,1.5-3.4,3.4c0,1.9,1.5,3.4,3.4,3.4c1.9,0,3.4-1.5,3.4-3.4
								C700.8,217.9,699.3,216.4,697.3,216.4L697.3,216.4z"/>
							<g>
								<circle fill="#424242" cx="845.6" cy="219.8" r="2.3"/>
							</g>
							<g>
								<circle fill="#424242" cx="853.1" cy="219.8" r="1.7"/>
							</g>
							<rect x="670.4" y="238.2" fill="#FFFFFF" width="206.8" height="367.9"/>
						</g>
						<g>
							<path fill="#616161" d="M1064.2,193.7c-36.5,0-46.9,15.1-46.9,36.4v395.7c0,21.3,16.4,36.5,36.6,36.5c0,0,65.9,1.3,81.6,1.3
								s75-1.3,75-1.3c20.2,0,36.6-15.3,36.6-36.5V275.9v-45.2c0-21.3-10.4-36.4-46.9-36.4L1064.2,193.7z"/>
							<rect x="1027.3" y="244.6" fill="#FFFFFF" width="209.8" height="369.7"/>
							<path fill="none" stroke="#424242" stroke-width="2.661" stroke-miterlimit="10" d="M1152.7,647.6h-41
								c-2.8,0-5.2-2.3-5.2-5.2v-9.6c0-2.8,2.3-5.2,5.2-5.2h41c2.8,0,5.2,2.3,5.2,5.2v9.6C1157.8,645.3,1155.5,647.6,1152.7,647.6z"
								/>
							<circle fill="#424242" cx="1187.8" cy="211.9" r="5.6"/>
							<circle fill="#424242" cx="1100.6" cy="211.9" r="3.1"/>
							<circle fill="#424242" cx="1090.1" cy="211.9" r="3.1"/>
							<path fill="#424242" d="M1153.9,215.4h-40.6c-0.8,0-1.5-0.7-1.5-1.5v-2.3c0-0.8,0.7-1.5,1.5-1.5h40.6c0.8,0,1.5,0.7,1.5,1.5
								v2.3C1155.4,214.7,1154.7,215.4,1153.9,215.4z"/>
						</g>
						<rect x="705.9" y="378.1" fill="#DEDEDE" width="135.8" height="34.2"/>
						<rect x="705.9" y="378.1" fill="#FF8A80" width="47.9" height="34.2"/>
						<rect x="1061.2" y="419.6" fill="#EEEEEE" width="21.9" height="194.5"/>
						<g>
							<rect x="1064.3" y="385.4" fill="#DEDEDE" width="135.8" height="34.2"/>
							<rect x="1064.3" y="385.4" fill="#B71C1C" width="79" height="34.2"/>
						</g>
						<g>
							<path fill="#616161" d="M1050.1,619.8H855.6c-9.2,0-16.6-7.4-16.6-16.6V166.1c0-9.2,7.4-16.6,16.6-16.6h194.6
								c9.2,0,16.6,7.4,16.6,16.6v437.1C1066.7,612.4,1059.3,619.8,1050.1,619.8z"/>
							<rect x="851.3" y="205.6" fill="#FFFFFF" width="203.2" height="358.8"/>
							<g>
								<path fill="#58595B" d="M952.9,573.2c9,0,16.3,7.3,16.3,16.3c0,9-7.3,16.3-16.3,16.3s-16.3-7.3-16.3-16.3
									C936.5,580.5,943.9,573.2,952.9,573.2 M952.9,571.8c-9.7,0-17.6,7.9-17.6,17.6s7.9,17.6,17.6,17.6c9.7,0,17.6-7.9,17.6-17.6
									S962.6,571.8,952.9,571.8L952.9,571.8z"/>
							</g>
							<circle fill="#424242" cx="916.7" cy="179.3" r="3.2"/>
							<circle fill="#424242" cx="952.9" cy="164.4" r="2.9"/>
							<path fill="#424242" d="M971.3,181.6h-36.9c-0.5,0-0.9-0.4-0.9-0.9V178c0-0.5,0.4-0.9,0.9-0.9l36.9,0c0.5,0,0.9,0.4,0.9,0.9
								v2.8C972.2,181.2,971.8,181.6,971.3,181.6z"/>
						</g>
						<g>
							<rect x="884.9" y="340.9" fill="#DEDEDE" width="135.8" height="34.2"/>
							<rect x="884.9" y="340.9" fill="#F44336" width="68.6" height="34.2"/>
						</g>
						<rect x="1066.7" y="193.8" fill="#424242" width="16.3" height="50.8"/>
						<rect x="1066.7" y="385.4" fill="#C62828" width="16.3" height="34.2"/>
						<rect x="1066.7" y="244.6" fill="#EEEEEE" width="16.3" height="140.8"/>
					</g>
				</g>
				<circle fill="#F44336" cx="940.7" cy="528.7" r="18.4"/>
				<circle fill="#B71C1C" cx="1118.9" cy="528.7" r="18.4"/>
				<circle fill="#FF8A80" cx="764" cy="528.7" r="18.4"/>
				<g>
					<path fill-rule="evenodd" clip-rule="evenodd" fill="#616161" d="M708.9,797.6l-502.5,0c-2,0-3.7-1.7-3.7-3.7l0-343
						c0-2,1.7-3.7,3.7-3.7l502.5,0c2,0,3.7,1.7,3.7,3.7l0,343C712.6,795.9,710.9,797.6,708.9,797.6z"/>
					<polygon fill-rule="evenodd" clip-rule="evenodd" fill="#FFFFFF" points="224.3,468.3 224.3,764.1 689.5,764.1 689.5,468.3 
						224.3,468.3 					"/>
					<path fill-rule="evenodd" clip-rule="evenodd" fill="#9E9E9E" d="M795,805.4l-674.7,0c-2.8,0-5-2.3-5-5l0-11.9c0-2.8,0-5,0-5
						l684.8,0c0,0,0,2.3,0,5v11.9C800.1,803.2,797.8,805.4,795,805.4z"/>
					<path fill-rule="evenodd" clip-rule="evenodd" fill="#424242" d="M409.9,783.4h94.5v4.2c0,2.3-1.9,4.2-4.2,4.2H414
						c-2.3,0-4.2-1.9-4.2-4.2V783.4L409.9,783.4z"/>
				</g>
				<g>
					<path fill="#F44336" d="M399.8,654.7l0.2-0.1h0l13.1-7.7c-6.1-8.7-9.7-19.3-9.7-30.7c0-29.5,23.9-53.4,53.4-53.4
						c21.3,0,39.7,12.5,48.3,30.5h0l0,0l13.1-7.6l0,0l0.2-0.1l30.4-1.6l-18-31.2L500.5,563c-5.7-4.7-12.2-8.5-19.3-11.1l-6.3-31.5
						h-36l-6.3,31.5c-7,2.7-13.5,6.4-19.3,11.1l-30.4-10.3l-18,31.2l24.1,21.2c-0.6,3.6-0.9,7.3-0.9,11.1c0,3.8,0.3,7.5,0.9,11.1
						l-24.1,21.2l18,31.2l0,0L399.8,654.7z"/>
					<path fill="#F44336" d="M525.7,616.2c0-3.8-0.3-7.5-0.9-11.1l24.1-21.2l-30.4,1.6l-0.2,0.1l0,0l-13.1,7.6l0,0h0
						c-8.6-18-27-30.5-48.3-30.5c-29.5,0-53.4,23.9-53.4,53.4c0,11.4,3.6,22,9.7,30.7l-13.1,7.7h0l-0.2,0.1l-16.9,25.1l0,0
						l30.4-10.3c5.7,4.7,12.2,8.5,19.3,11.1l6.3,31.5h36l6.3-31.5c7-2.7,13.5-6.4,19.3-11.1l30.4,10.3l18-31.2l-24.1-21.2
						C525.4,623.7,525.7,620,525.7,616.2z M420.3,616.2c0-20.2,16.4-36.6,36.6-36.6c15.1,0,28.1,9.1,33.7,22.2l0,0
						c0.7,1.7,1.3,3.4,1.8,5.2c0.8,3,1.2,6.1,1.2,9.3c0,20.2-16.4,36.6-36.6,36.6c-0.7,0-1.5,0-2.2-0.1c-11-0.7-20.7-6.2-26.9-14.4
						h0C423.1,632.2,420.3,624.6,420.3,616.2z"/>
					<path fill="#B71C1C" d="M427.8,638.4L427.8,638.4c6.3,8.2,16,13.7,26.9,14.4c0.7,0,1.5,0.1,2.2,0.1c20.2,0,36.6-16.4,36.6-36.6
						c0-3.2-0.4-6.3-1.2-9.3c-0.5-1.8-1.1-3.5-1.8-5.2l0,0c-5.6-13-18.6-22.2-33.7-22.2c-20.2,0-36.6,16.4-36.6,36.6
						C420.3,624.6,423.1,632.2,427.8,638.4z"/>
				</g>
			</g>
		</g>
	</g>
</g>
<g id="Screen">
</g>
</svg>
